<svg fill="none" xmlns="http://www.w3.org/2000/svg">
<symbol id="rect">
<circle cx="60" cy="89" r="60" fill="#FF9900"/>
<path fill-rule="evenodd" clip-rule="evenodd" d="M87.8838 26.8652C88.1597 26.3868 88.7712 26.2226 89.2496 26.4985L147.75 60.2335C148.228 60.5094 148.392 61.1209 148.116 61.5993C147.84 62.0778 147.229 62.242 146.75 61.9661L88.2505 28.2311C87.7721 27.9552 87.6079 27.3437 87.8838 26.8652Z" fill="black"/>
<path fill-rule="evenodd" clip-rule="evenodd" d="M111.002 13.8879C113.13 12.6599 115.543 12.0134 118 12.0134C120.457 12.0134 122.87 12.6599 124.998 13.8879C124.999 13.8883 124.999 13.8887 125 13.8891L170.5 39.8891C172.626 41.1166 174.392 42.8817 175.621 45.0072C176.849 47.1327 177.497 49.544 177.5 51.9991V104.001C177.497 106.456 176.849 108.867 175.621 110.993C174.392 113.119 172.626 114.884 170.5 116.111L170.496 116.113L125 142.111C125 142.111 124.999 142.112 124.999 142.112C122.871 143.34 120.457 143.987 118 143.987C115.543 143.987 113.129 143.34 111.001 142.112C111.001 142.112 111 142.111 111 142.111L65.5039 116.113L65.5 116.111C63.3738 114.884 61.6079 113.119 60.3792 110.993C59.1506 108.867 58.5025 106.456 58.5 104.001V51.9991C58.5025 49.544 59.1506 47.1327 60.3792 45.0072C61.6079 42.8817 63.3738 41.1166 65.5 39.8891L65.5039 39.8869L111 13.8891C111.001 13.8887 111.001 13.8883 111.002 13.8879ZM118 14.0134C115.894 14.0134 113.824 14.5679 112 15.6211L111.996 15.6233L66.5 41.6211C66.4993 41.6215 66.4986 41.6219 66.498 41.6223C64.6765 42.6744 63.1635 44.1869 62.1108 46.0081C61.0577 47.8298 60.5022 49.8964 60.5 52.0006V104C60.5022 106.104 61.0577 108.17 62.1108 109.992C63.1634 111.813 64.6763 113.326 66.4977 114.378C66.4984 114.378 66.4992 114.379 66.5 114.379L112 140.379C113.824 141.432 115.894 141.987 118 141.987C120.106 141.987 122.176 141.432 124 140.379L124.004 140.377L169.5 114.379C169.501 114.379 169.502 114.378 169.502 114.378C171.324 113.326 172.837 111.813 173.889 109.992C174.942 108.17 175.498 106.103 175.5 103.999V52.0011C175.498 49.8968 174.942 47.83 173.889 46.0081C172.837 44.1869 171.324 42.6744 169.502 41.6223C169.501 41.6219 169.501 41.6215 169.5 41.6211L124.004 15.6233L124 15.6211C122.176 14.5679 120.106 14.0134 118 14.0134Z" fill="black"/>
<path fill-rule="evenodd" clip-rule="evenodd" d="M60.3896 44.7391C60.6661 44.261 61.2778 44.0976 61.7559 44.3742L118 76.9095L174.244 44.3742C174.722 44.0976 175.334 44.261 175.611 44.7391C175.887 45.2171 175.724 45.8289 175.246 46.1054L118.501 78.9304C118.191 79.1096 117.809 79.1096 117.499 78.9304L60.7544 46.1054C60.2764 45.8289 60.113 45.2171 60.3896 44.7391Z" fill="black"/>
<path fill-rule="evenodd" clip-rule="evenodd" d="M118 77C118.552 77 119 77.4477 119 78V143.52C119 144.072 118.552 144.52 118 144.52C117.448 144.52 117 144.072 117 143.52V78C117 77.4477 117.448 77 118 77Z" fill="black"/>
</symbol>

<symbol id="setting">
<circle cx="60" cy="94" r="59.5" fill="#FF9900" stroke="#FF9900"/>
<path fill-rule="evenodd" clip-rule="evenodd" d="M121 48C112.163 48 105 55.1634 105 64C105 72.8366 112.163 80 121 80C129.837 80 137 72.8366 137 64C137 55.1634 129.837 48 121 48ZM103 64C103 54.0589 111.059 46 121 46C130.941 46 139 54.0589 139 64C139 73.9411 130.941 82 121 82C111.059 82 103 73.9411 103 64Z" fill="black"/>
<path fill-rule="evenodd" clip-rule="evenodd" d="M121 2.66675C118.259 2.66675 115.631 3.75544 113.693 5.69331C111.755 7.63119 110.667 10.2595 110.667 13.0001V13.9634L110.667 13.9674C110.659 15.9859 110.06 17.958 108.946 19.6409C107.831 21.3238 106.249 22.6441 104.394 23.4392C104.269 23.4926 104.135 23.5201 104 23.5201H103.752C101.912 24.2865 99.8888 24.5062 97.9249 24.1501C95.89 23.7811 94.0124 22.811 92.534 21.3649L92.5261 21.3572L92.1862 21.0172C91.2265 20.0564 90.0865 19.2939 88.832 18.7738C87.5776 18.2538 86.2329 17.9862 84.875 17.9862C83.517 17.9862 82.1724 18.2538 80.9179 18.7738C79.6635 19.2939 78.5238 20.056 77.5641 21.0168L77.5633 21.0176C76.6026 21.9773 75.8404 23.1169 75.3204 24.3714C74.8004 25.6258 74.5327 26.9705 74.5327 28.3284C74.5327 29.6864 74.8004 31.031 75.3204 32.2855C75.8404 33.5399 76.6026 34.6796 77.5633 35.6392L77.9115 35.9874C79.3576 37.4658 80.3277 39.3435 80.6966 41.3783C81.0637 43.4028 80.819 45.4905 79.9942 47.3749C79.2752 49.3115 77.993 50.989 76.3124 52.191C74.6232 53.3992 72.6096 54.0712 70.5333 54.1198L70.51 54.1201H70C67.2594 54.1201 64.6311 55.2088 62.6932 57.1466C60.7553 59.0845 59.6666 61.7128 59.6666 64.4534C59.6666 67.194 60.7553 69.8223 62.6932 71.7602C64.6311 73.6981 67.2594 74.7868 70 74.7868H70.9673C72.9858 74.7948 74.9578 75.3929 76.6407 76.5074C78.3222 77.6209 79.6416 79.2015 80.437 81.0546C81.2703 82.9453 81.5186 85.0421 81.1499 87.0752C80.781 89.11 79.8109 90.9877 78.3648 92.466L78.3571 92.4739L78.0171 92.8139C77.0563 93.7736 76.2937 94.9136 75.7737 96.168C75.2537 97.4225 74.986 98.7671 74.986 100.125C74.986 101.483 75.2537 102.828 75.7737 104.082C76.2937 105.337 77.0559 106.476 78.0167 107.436L78.0175 107.437C78.9771 108.397 80.1168 109.16 81.3712 109.68C82.6257 110.2 83.9703 110.467 85.3283 110.467C86.6863 110.467 88.0309 110.2 89.2853 109.68C90.5398 109.16 91.6794 108.397 92.6391 107.437L92.9873 107.089C94.4657 105.642 96.3434 104.672 98.3782 104.303C100.403 103.936 102.49 104.181 104.375 105.006C106.311 105.725 107.989 107.007 109.191 108.688C110.399 110.377 111.071 112.39 111.12 114.467L111.12 114.49V115C111.12 117.741 112.209 120.369 114.147 122.307C116.084 124.245 118.713 125.333 121.453 125.333C124.194 125.333 126.822 124.245 128.76 122.307C130.698 120.369 131.787 117.741 131.787 115V114.037L131.787 114.033C131.795 112.014 132.393 110.042 133.507 108.359C134.621 106.678 136.201 105.359 138.054 104.563C139.945 103.73 142.042 103.481 144.075 103.85C146.11 104.219 147.988 105.189 149.466 106.635L149.474 106.643L149.814 106.983C150.773 107.944 151.913 108.706 153.168 109.226C154.422 109.746 155.767 110.014 157.125 110.014C158.483 110.014 159.828 109.746 161.082 109.226C162.336 108.706 163.476 107.944 164.436 106.983L164.437 106.983C165.397 106.023 166.16 104.883 166.68 103.629C167.2 102.374 167.467 101.03 167.467 99.6718C167.467 98.3138 167.2 96.9692 166.68 95.7147C166.16 94.4603 165.397 93.3206 164.437 92.3609L164.088 92.0127C162.642 90.5344 161.672 88.6567 161.303 86.6218C160.935 84.5886 161.183 82.4916 162.016 80.6008C162.812 78.7478 164.131 77.1675 165.813 76.0541C167.495 74.9396 169.467 74.3415 171.486 74.3334L171.49 74.3334L172 74.3334C174.741 74.3334 177.369 73.2447 179.307 71.3069C181.245 69.369 182.333 66.7407 182.333 64.0001C182.333 61.2595 181.245 58.6312 179.307 56.6933C177.369 54.7554 174.741 53.6668 172 53.6668H171.037L171.033 53.6667C169.014 53.6587 167.042 53.0606 165.359 51.9461C163.676 50.8316 162.356 49.2493 161.561 47.394C161.507 47.2695 161.48 47.1355 161.48 47.0001V46.752C160.713 44.9124 160.494 42.889 160.85 40.925C161.219 38.8902 162.189 37.0125 163.635 35.5342L163.643 35.5263L163.983 35.1863C164.944 34.2266 165.706 33.0866 166.226 31.8321C166.746 30.5777 167.014 29.233 167.014 27.8751C167.014 26.5171 166.746 25.1725 166.226 23.918C165.706 22.6636 164.944 21.5239 163.983 20.5642L163.982 20.5635C163.023 19.6027 161.883 18.8405 160.629 18.3205C159.374 17.8005 158.03 17.5328 156.672 17.5328C155.314 17.5328 153.969 17.8005 152.715 18.3205C151.46 18.8405 150.32 19.6027 149.361 20.5635L149.013 20.9117C147.534 22.3577 145.657 23.3278 143.622 23.6967C141.589 24.0654 139.492 23.817 137.601 22.9838C135.748 22.1884 134.167 20.869 133.054 19.1875C131.939 17.5046 131.341 15.5325 131.333 13.5141L131.333 13.5101V13.0001C131.333 10.2595 130.245 7.63119 128.307 5.69331C126.369 3.75544 123.741 2.66675 121 2.66675ZM112.279 4.2791C114.592 1.96615 117.729 0.666748 121 0.666748C124.271 0.666748 127.408 1.96615 129.721 4.2791C132.034 6.59205 133.333 9.72908 133.333 13.0001L133.333 13.5061C133.333 13.5067 133.333 13.5073 133.333 13.508C133.34 15.1357 133.823 16.726 134.721 18.0832C135.621 19.4409 136.897 20.5061 138.394 21.1476L138.404 21.1518C139.93 21.8255 141.623 22.0265 143.265 21.7288C144.905 21.4315 146.418 20.6502 147.61 19.4855C147.612 19.4843 147.613 19.4831 147.614 19.4819L147.946 19.15C147.946 19.1499 147.946 19.1502 147.946 19.15C149.091 18.0035 150.452 17.0936 151.949 16.473C153.446 15.8523 155.051 15.5328 156.672 15.5328C158.292 15.5328 159.897 15.8523 161.395 16.473C162.891 17.0935 164.251 18.0029 165.397 19.1492C166.543 20.2947 167.453 21.6549 168.074 23.1522C168.694 24.6494 169.014 26.2543 169.014 27.8751C169.014 29.4959 168.694 31.1008 168.074 32.598C167.453 34.0953 166.543 35.4555 165.397 36.6009L165.065 36.9327C165.064 36.934 165.062 36.9353 165.061 36.9366C163.896 38.1287 163.115 39.642 162.818 41.2818C162.52 42.9235 162.721 44.6166 163.395 46.143C163.451 46.2702 163.48 46.4077 163.48 46.5467V46.7888C164.128 48.2068 165.161 49.4162 166.463 50.2786C167.821 51.1774 169.411 51.6599 171.039 51.6668H172C175.271 51.6668 178.408 52.9662 180.721 55.2791C183.034 57.5921 184.333 60.7291 184.333 64.0001C184.333 67.2711 183.034 70.4081 180.721 72.7211C178.408 75.034 175.271 76.3334 172 76.3334L171.494 76.3334C171.493 76.3334 171.493 76.3334 171.492 76.3334C169.864 76.3403 168.274 76.8228 166.917 77.7216C165.559 78.6207 164.494 79.8972 163.852 81.394L163.848 81.4039C163.175 82.9302 162.974 84.6234 163.271 86.265C163.569 87.9048 164.35 89.418 165.514 90.6101C165.515 90.6114 165.517 90.6128 165.518 90.6142L165.85 90.9459C165.85 90.946 165.85 90.9458 165.85 90.9459C166.997 92.0913 167.906 93.4518 168.527 94.9488C169.148 96.4461 169.467 98.051 169.467 99.6718C169.467 101.293 169.148 102.897 168.527 104.395C167.906 105.892 166.997 107.252 165.85 108.397C164.705 109.544 163.345 110.453 161.848 111.074C160.351 111.695 158.746 112.014 157.125 112.014C155.504 112.014 153.899 111.695 152.402 111.074C150.905 110.453 149.545 109.544 148.4 108.397C148.399 108.397 148.4 108.397 148.4 108.397L148.067 108.065C148.066 108.064 148.065 108.062 148.063 108.061C146.871 106.897 145.358 106.115 143.718 105.818C142.077 105.52 140.383 105.721 138.857 106.395L138.847 106.399C137.35 107.041 136.074 108.106 135.175 109.464C134.276 110.821 133.793 112.411 133.787 114.039C133.787 114.039 133.787 114.04 133.787 114.041L133.787 115C133.787 118.271 132.487 121.408 130.174 123.721C127.861 126.034 124.724 127.333 121.453 127.333C118.182 127.333 115.045 126.034 112.732 123.721C110.419 121.408 109.12 118.271 109.12 115V114.502C109.079 112.831 108.537 111.211 107.564 109.851C106.589 108.488 105.227 107.45 103.655 106.872C103.644 106.868 103.634 106.864 103.623 106.86C103.614 106.856 103.605 106.852 103.596 106.848C102.07 106.175 100.377 105.974 98.735 106.271C97.0952 106.569 95.5819 107.35 94.3898 108.514C94.3885 108.516 94.3872 108.517 94.3859 108.518L94.0541 108.85C92.9087 109.997 91.5485 110.907 90.0512 111.527C88.554 112.148 86.9491 112.467 85.3283 112.467C83.7075 112.467 82.1026 112.148 80.6054 111.527C79.1081 110.907 77.7479 109.997 76.6025 108.85C75.4561 107.705 74.5467 106.345 73.9262 104.848C73.3055 103.351 72.986 101.746 72.986 100.125C72.986 98.5043 73.3055 96.8994 73.9262 95.4022C74.5468 93.9051 75.4563 92.545 76.6029 91.3996C76.603 91.3995 76.6027 91.3998 76.6029 91.3996L76.9351 91.0675C76.9363 91.0662 76.9376 91.0649 76.9388 91.0637C78.1034 89.8716 78.8847 88.3582 79.182 86.7183C79.4797 85.0767 79.2787 83.3835 78.6051 81.8572L78.6008 81.8474C77.9593 80.3506 76.8942 79.074 75.5364 78.1749C74.1793 77.2761 72.589 76.7936 70.9612 76.7868C70.9605 76.7868 70.9599 76.7867 70.9593 76.7867L70 76.7868C66.729 76.7868 63.5919 75.4874 61.279 73.1744C58.966 70.8615 57.6666 67.7244 57.6666 64.4534C57.6666 61.1824 58.966 58.0454 61.279 55.7324C63.5919 53.4195 66.729 52.1201 70 52.1201H70.498C72.169 52.0787 73.7892 51.5368 75.1489 50.5643C76.5117 49.5896 77.5497 48.2274 78.1281 46.6549C78.1354 46.6351 78.1433 46.6156 78.1518 46.5963C78.8254 45.07 79.0264 43.3768 78.7287 41.7352C78.4314 40.0953 77.6501 38.5819 76.4855 37.3898L76.1499 37.0542C75.0032 35.9088 74.0935 34.5486 73.4728 33.0513C72.8522 31.5541 72.5327 29.9492 72.5327 28.3284C72.5327 26.7076 72.8522 25.1027 73.4728 23.6055C74.0935 22.1082 75.0032 20.748 76.1499 19.6026C77.2952 18.4562 78.6551 17.5468 80.152 16.9263C81.6493 16.3056 83.2542 15.9862 84.875 15.9862C86.4957 15.9862 88.1006 16.3056 89.5979 16.9263C91.095 17.5469 92.455 18.4564 93.6004 19.603C93.6005 19.6031 93.6003 19.6028 93.6004 19.603L93.9365 19.939C95.1285 21.1036 96.6419 21.8848 98.2817 22.1822C99.9233 22.4798 101.617 22.2789 103.143 21.6052C103.27 21.5491 103.408 21.5201 103.547 21.5201H103.789C105.207 20.8718 106.416 19.8387 107.278 18.5366C108.177 17.1794 108.66 15.5891 108.667 13.9613V13.0001C108.667 9.72908 109.966 6.59205 112.279 4.2791Z" fill="black"/>
</symbol>

<symbol id="time">
<path
d="M11.99 2C6.47 2 2 6.48 2 12C2 17.52 6.47 22 11.99 22C17.52 22 22 17.52 22 12C22 6.48 17.52 2 11.99 2ZM12 20C7.58 20 4 16.42 4 12C4 7.58 7.58 4 12 4C16.42 4 20 7.58 20 12C20 16.42 16.42 20 12 20Z"
fill="white" />
<path d="M12.5 7H11V13L16.25 16.15L17 14.92L12.5 12.25V7Z" fill="white" />
</symbol>

</svg>
